<?xml version="1.0" encoding="utf-8"?>
<!-- Generator: Adobe Illustrator 15.1.0, SVG Export Plug-In . SVG Version: 6.00 Build 0)  -->
<!DOCTYPE svg PUBLIC "-//W3C//DTD SVG 1.1//EN" "http://www.w3.org/Graphics/SVG/1.1/DTD/svg11.dtd" [
	<!ENTITY ns_extend "http://ns.adobe.com/Extensibility/1.0/">
	<!ENTITY ns_ai "http://ns.adobe.com/AdobeIllustrator/10.0/">
	<!ENTITY ns_graphs "http://ns.adobe.com/Graphs/1.0/">
	<!ENTITY ns_vars "http://ns.adobe.com/Variables/1.0/">
	<!ENTITY ns_imrep "http://ns.adobe.com/ImageReplacement/1.0/">
	<!ENTITY ns_sfw "http://ns.adobe.com/SaveForWeb/1.0/">
	<!ENTITY ns_custom "http://ns.adobe.com/GenericCustomNamespace/1.0/">
	<!ENTITY ns_adobe_xpath "http://ns.adobe.com/XPath/1.0/">
]>
<svg version="1.1" id="Ñëîé_1" xmlns:x="&ns_extend;" xmlns:i="&ns_ai;" xmlns:graph="&ns_graphs;"
	 xmlns="http://www.w3.org/2000/svg" xmlns:xlink="http://www.w3.org/1999/xlink" x="0px" y="0px" width="97.465px"
	 height="101.26px" viewBox="0 0 97.465 101.26" enable-background="new 0 0 97.465 101.26" xml:space="preserve">
<metadata>
	<sfw  xmlns="&ns_sfw;">
		<slices></slices>
		<sliceSourceBounds  x="659.41" y="-779.764" width="97.437" height="101.26" bottomLeftOrigin="true"></sliceSourceBounds>
	</sfw>
</metadata>
<path fill="#E6E6E6" d="M97.438,0.559V0h-0.561c0,0.079,0.018,0.153,0.047,0.22l-8.832,5.099c-0.076-0.115-0.195-0.2-0.334-0.234V0
	h-0.131v5.067h-0.002c-0.17,0-0.322,0.078-0.424,0.198L78.463,0.22C78.49,0.153,78.508,0.079,78.508,0h-1.117
	c0,0.079,0.016,0.153,0.045,0.22l-8.832,5.099c-0.076-0.115-0.193-0.2-0.332-0.234V0h-0.133v5.067c0,0,0,0-0.002,0
	c-0.17,0-0.32,0.078-0.424,0.198L58.975,0.22C59.004,0.153,59.02,0.079,59.02,0h-1.115c0,0.079,0.016,0.153,0.045,0.22l-8.833,5.099
	c-0.076-0.115-0.194-0.2-0.333-0.234V0h-0.132v5.067c0,0-0.001,0-0.002,0c-0.17,0-0.32,0.078-0.423,0.198L39.488,0.22
	c0.029-0.067,0.045-0.142,0.045-0.22h-1.117c0,0.079,0.016,0.153,0.045,0.22l-8.832,5.099c-0.076-0.115-0.194-0.2-0.332-0.234V0
	h-0.133v5.067c0,0-0.001,0-0.001,0c-0.171,0-0.321,0.078-0.424,0.198L20,0.22C20.03,0.153,20.046,0.079,20.046,0h-1.117
	c0,0.079,0.016,0.153,0.045,0.22l-8.832,5.099c-0.076-0.115-0.194-0.2-0.333-0.234V0H9.677v5.067c0,0-0.001,0-0.001,0
	c-0.17,0-0.321,0.078-0.424,0.198L0.513,0.22C0.542,0.153,0.558,0.079,0.558,0H0v0.559c0.183,0,0.343-0.089,0.446-0.225l8.733,5.042
	c-0.038,0.075-0.062,0.159-0.062,0.25c0,0.09,0.024,0.174,0.062,0.25l-8.733,5.042C0.344,10.782,0.183,10.693,0,10.693v23.619
	c0.183,0,0.344-0.089,0.446-0.226l8.733,5.043c-0.038,0.076-0.062,0.159-0.062,0.25c0,0.09,0.024,0.175,0.062,0.249l-8.733,5.043
	C0.343,44.534,0.183,44.445,0,44.445v23.619c0.183,0,0.344-0.089,0.446-0.224l8.733,5.041c-0.038,0.076-0.062,0.159-0.062,0.25
	c0,0.09,0.024,0.175,0.062,0.249l-8.733,5.043C0.343,78.288,0.183,78.198,0,78.198v23.062h0.558c0-0.286-0.215-0.519-0.492-0.553
	V90.561c0.155-0.019,0.291-0.1,0.38-0.219l8.733,5.043c-0.038,0.075-0.062,0.158-0.062,0.25c0,0.309,0.25,0.558,0.559,0.558
	c0,0,0.001,0,0.001,0v5.067H9.81v-5.085c0.244-0.061,0.424-0.278,0.424-0.54c0-0.066-0.013-0.129-0.034-0.188l8.841-5.105
	c0.089,0.119,0.225,0.2,0.379,0.219v10.146c-0.277,0.034-0.492,0.267-0.492,0.553h1.117c0-0.286-0.215-0.519-0.493-0.553l0-10.146
	c0.155-0.019,0.29-0.1,0.379-0.219l8.733,5.043c-0.038,0.075-0.062,0.158-0.062,0.25c0,0.309,0.25,0.558,0.559,0.558
	c0,0,0.001,0,0.001,0v5.067h0.133v-5.085c0.243-0.061,0.424-0.278,0.424-0.54c0-0.066-0.013-0.129-0.035-0.188l8.842-5.105
	c0.09,0.119,0.225,0.2,0.38,0.219l0,10.146c-0.277,0.034-0.492,0.267-0.492,0.553h1.117c0-0.286-0.216-0.519-0.493-0.553V90.561
	c0.156-0.019,0.291-0.1,0.38-0.219l8.733,5.043c-0.039,0.075-0.062,0.158-0.062,0.25c0,0.309,0.25,0.558,0.558,0.558
	c0.001,0,0.002,0,0.002,0v5.067h0.132v-5.085c0.244-0.061,0.425-0.278,0.425-0.54c0-0.066-0.014-0.129-0.035-0.188l8.841-5.105
	c0.09,0.119,0.225,0.2,0.381,0.219v10.146c-0.277,0.034-0.492,0.267-0.492,0.553h1.115c0-0.286-0.215-0.519-0.49-0.553V90.561
	c0.154-0.019,0.289-0.1,0.379-0.219l8.732,5.043c-0.039,0.075-0.061,0.158-0.061,0.25c0,0.309,0.25,0.558,0.557,0.558
	c0.002,0,0.002,0,0.002,0v5.067h0.133v-5.085c0.244-0.061,0.424-0.278,0.424-0.54c0-0.066-0.012-0.129-0.033-0.188l8.842-5.105
	c0.09,0.119,0.223,0.2,0.379,0.219v10.146c-0.277,0.034-0.492,0.267-0.492,0.553h1.117c0-0.286-0.215-0.519-0.492-0.553V90.561
	c0.154-0.019,0.291-0.1,0.379-0.219l8.734,5.043c-0.039,0.075-0.063,0.158-0.063,0.25c0,0.309,0.25,0.558,0.559,0.558h0.002v5.067
	h0.131v-5.085c0.244-0.061,0.426-0.278,0.426-0.54c0-0.066-0.014-0.129-0.033-0.188l8.842-5.105c0.088,0.119,0.223,0.2,0.379,0.219
	v10.146c-0.277,0.034-0.494,0.267-0.494,0.553h0.561V78.198c-0.184,0-0.344,0.09-0.445,0.226l-8.842-5.105
	c0.02-0.059,0.033-0.12,0.033-0.187c0-0.065-0.014-0.129-0.033-0.188l8.84-5.104c0.102,0.136,0.264,0.225,0.447,0.225V44.445
	c-0.184,0-0.344,0.089-0.445,0.226l-8.842-5.105c0.02-0.059,0.033-0.12,0.033-0.187c0-0.065-0.014-0.129-0.033-0.188l8.842-5.105
	c0.102,0.137,0.262,0.226,0.445,0.226V10.693c-0.184,0-0.344,0.089-0.445,0.225L88.15,5.813c0.02-0.059,0.033-0.121,0.033-0.187
	c0-0.066-0.014-0.128-0.033-0.187l8.842-5.105C97.094,0.47,97.254,0.559,97.438,0.559z M88.092,17.184l8.832,5.099
	c-0.029,0.068-0.047,0.142-0.047,0.22c0,0.078,0.018,0.152,0.047,0.22l-8.832,5.1c-0.1-0.152-0.271-0.252-0.467-0.252
	c-0.17,0-0.322,0.078-0.424,0.198l-8.738-5.045c0.027-0.068,0.045-0.142,0.045-0.22c0-0.078-0.018-0.152-0.045-0.22l8.738-5.045
	c0.102,0.12,0.254,0.198,0.424,0.198C87.82,17.435,87.992,17.335,88.092,17.184z M96.924,56.475l-8.832,5.101
	c-0.1-0.151-0.271-0.253-0.467-0.253c-0.17,0-0.322,0.078-0.424,0.198l-8.738-5.046c0.027-0.066,0.045-0.141,0.045-0.22
	c0-0.078-0.018-0.152-0.045-0.22l8.738-5.046c0.102,0.121,0.254,0.199,0.424,0.199c0.195,0,0.367-0.101,0.467-0.252l8.832,5.099
	c-0.029,0.067-0.047,0.142-0.047,0.22C96.877,56.334,96.895,56.408,96.924,56.475z M78.016,66.954V56.808
	c0.154-0.019,0.291-0.1,0.379-0.219l8.734,5.042c-0.039,0.076-0.063,0.16-0.063,0.251c0,0.308,0.25,0.558,0.559,0.558h0.002v10.134
	h-0.002c-0.17,0-0.322,0.078-0.424,0.198l-8.738-5.045c0.027-0.068,0.045-0.142,0.045-0.22
	C78.508,67.221,78.293,66.988,78.016,66.954z M77.436,67.726l-8.832,5.1c-0.076-0.115-0.193-0.2-0.332-0.233v-10.17
	c0.244-0.061,0.424-0.279,0.424-0.54c0-0.066-0.012-0.129-0.033-0.188l8.842-5.105c0.09,0.119,0.223,0.2,0.379,0.219v10.146
	c-0.277,0.033-0.492,0.267-0.492,0.553C77.391,67.585,77.406,67.658,77.436,67.726z M58.529,66.954V56.808
	c0.154-0.019,0.289-0.1,0.379-0.219l8.732,5.042c-0.039,0.076-0.061,0.16-0.061,0.251c0,0.308,0.25,0.558,0.557,0.558
	c0.002,0,0.002,0,0.002,0v10.134c0,0,0,0-0.002,0c-0.17,0-0.32,0.078-0.424,0.198l-8.738-5.045c0.029-0.068,0.045-0.142,0.045-0.22
	C59.02,67.221,58.805,66.988,58.529,66.954z M57.949,67.726l-8.833,5.1c-0.076-0.115-0.194-0.2-0.333-0.233v-10.17
	c0.244-0.061,0.425-0.279,0.425-0.54c0-0.066-0.014-0.129-0.035-0.188l8.841-5.105c0.09,0.119,0.225,0.2,0.381,0.219v10.146
	c-0.277,0.034-0.492,0.267-0.492,0.553C57.904,67.585,57.92,67.658,57.949,67.726z M39.041,66.954V56.808
	c0.156-0.019,0.291-0.1,0.38-0.219l8.733,5.042c-0.039,0.076-0.062,0.16-0.062,0.251c0,0.308,0.25,0.558,0.558,0.558
	c0.001,0,0.002,0,0.002,0v10.134c0,0-0.001,0-0.002,0c-0.17,0-0.32,0.078-0.423,0.198l-8.739-5.045
	c0.029-0.068,0.045-0.142,0.045-0.22C39.533,67.221,39.317,66.988,39.041,66.954z M38.461,67.726l-8.832,5.1
	c-0.076-0.115-0.194-0.2-0.332-0.233v-10.17c0.243-0.061,0.424-0.279,0.424-0.54c0-0.066-0.013-0.129-0.035-0.188l8.842-5.105
	c0.09,0.119,0.225,0.2,0.38,0.219l0,10.146c-0.277,0.034-0.492,0.267-0.492,0.553C38.416,67.585,38.432,67.658,38.461,67.726z
	 M19.553,66.954l0-10.146c0.155-0.019,0.29-0.1,0.379-0.219l8.733,5.042c-0.038,0.076-0.062,0.16-0.062,0.251
	c0,0.308,0.25,0.558,0.559,0.558c0,0,0.001,0,0.001,0l0,10.134c-0.001,0-0.001,0-0.002,0c-0.171,0-0.321,0.078-0.424,0.198
	L20,67.727c0.029-0.068,0.045-0.142,0.045-0.22C20.046,67.221,19.831,66.988,19.553,66.954z M18.974,67.726l-8.832,5.1
	c-0.076-0.115-0.194-0.2-0.333-0.233v-10.17c0.244-0.061,0.424-0.279,0.424-0.54c0-0.066-0.013-0.129-0.034-0.188l8.841-5.105
	c0.089,0.119,0.225,0.2,0.379,0.219v10.146c-0.277,0.034-0.492,0.267-0.492,0.553C18.929,67.585,18.945,67.658,18.974,67.726z
	 M0.513,56.035l8.739-5.046c0.102,0.121,0.253,0.199,0.424,0.199c0.195,0,0.366-0.101,0.466-0.252l8.832,5.099
	c-0.029,0.067-0.045,0.142-0.045,0.22c0,0.079,0.016,0.153,0.045,0.22l-8.832,5.101c-0.1-0.151-0.271-0.253-0.466-0.253
	c-0.17,0-0.321,0.078-0.424,0.198l-8.739-5.046c0.029-0.066,0.045-0.141,0.045-0.22C0.558,56.177,0.542,56.103,0.513,56.035z
	 M19.042,55.922L10.2,50.817c0.021-0.059,0.034-0.121,0.034-0.188c0-0.262-0.181-0.479-0.424-0.54V39.92
	c0.138-0.035,0.256-0.119,0.333-0.234l8.832,5.1c-0.029,0.066-0.045,0.142-0.045,0.22c0,0.285,0.215,0.519,0.492,0.551v10.148
	C19.266,55.723,19.131,55.803,19.042,55.922z M10.2,27.941l8.842-5.105c0.089,0.119,0.224,0.2,0.379,0.218v10.147
	c-0.277,0.033-0.492,0.267-0.492,0.552c0,0.078,0.016,0.152,0.045,0.22l-8.832,5.1c-0.076-0.115-0.194-0.2-0.333-0.233v-10.17
	c0.244-0.061,0.424-0.279,0.424-0.541C10.234,28.062,10.221,28,10.2,27.941z M19.042,44.671L10.2,39.565
	c0.021-0.059,0.034-0.12,0.034-0.187c0-0.065-0.013-0.129-0.034-0.188l8.841-5.105c0.102,0.137,0.263,0.226,0.445,0.226
	c0.183,0,0.344-0.089,0.446-0.226l8.733,5.043c-0.038,0.076-0.062,0.159-0.062,0.25c0,0.09,0.023,0.175,0.062,0.249l-8.733,5.043
	c-0.102-0.137-0.263-0.226-0.446-0.226C19.305,44.445,19.144,44.534,19.042,44.671z M29.163,28.687c0,0,0.001,0,0.001,0V38.82
	c0,0-0.001,0-0.001,0c-0.171,0-0.321,0.078-0.424,0.198L20,33.974c0.029-0.068,0.045-0.142,0.045-0.221
	c0-0.285-0.215-0.519-0.493-0.552V23.054c0.155-0.019,0.29-0.099,0.379-0.218l8.733,5.042c-0.038,0.076-0.062,0.16-0.062,0.25
	C28.604,28.436,28.854,28.687,29.163,28.687z M28.666,50.88l-8.733,5.042c-0.089-0.119-0.224-0.199-0.379-0.218l0-10.148
	c0.277-0.032,0.493-0.266,0.493-0.551c0-0.078-0.016-0.153-0.045-0.22l8.739-5.046c0.103,0.12,0.253,0.198,0.424,0.198
	c0,0,0.001,0,0.001,0v10.135c0,0-0.001-0.001-0.001-0.001c-0.309,0-0.559,0.25-0.559,0.559C28.604,50.72,28.628,50.805,28.666,50.88
	z M29.163,61.322c-0.171,0-0.321,0.078-0.424,0.198L20,56.475c0.029-0.066,0.045-0.141,0.045-0.22c0-0.078-0.016-0.152-0.045-0.22
	l8.739-5.046c0.103,0.121,0.253,0.199,0.424,0.199c0.195,0,0.367-0.101,0.466-0.252l8.832,5.099
	c-0.029,0.067-0.045,0.142-0.045,0.22c0,0.079,0.016,0.153,0.045,0.22l-8.832,5.101C29.53,61.424,29.358,61.322,29.163,61.322z
	 M38.529,55.922l-8.842-5.104c0.021-0.059,0.035-0.121,0.035-0.188c0-0.262-0.181-0.479-0.424-0.54V39.92
	c0.138-0.035,0.256-0.119,0.332-0.234l8.832,5.1c-0.029,0.066-0.045,0.142-0.045,0.22c0,0.285,0.215,0.519,0.492,0.551l0,10.148
	C38.753,55.723,38.619,55.803,38.529,55.922z M29.687,27.941l8.842-5.105c0.09,0.119,0.225,0.2,0.379,0.218v10.147
	c-0.277,0.033-0.492,0.267-0.492,0.552c0,0.078,0.016,0.152,0.045,0.22l-8.832,5.1c-0.076-0.115-0.194-0.2-0.332-0.233v-10.17
	c0.243-0.061,0.424-0.279,0.424-0.541C29.722,28.062,29.708,28,29.687,27.941z M38.529,44.671l-8.842-5.105
	c0.021-0.059,0.035-0.12,0.035-0.187c0-0.065-0.013-0.129-0.035-0.188l8.842-5.105c0.102,0.137,0.263,0.226,0.446,0.226
	c0.183,0,0.343-0.089,0.446-0.226l8.733,5.043c-0.039,0.076-0.062,0.159-0.062,0.25c0,0.09,0.023,0.175,0.062,0.249l-8.733,5.043
	c-0.102-0.137-0.263-0.226-0.445-0.226C38.792,44.445,38.631,44.534,38.529,44.671z M48.65,28.687c0.001,0,0.002,0,0.002,0V38.82
	c0,0-0.001,0-0.002,0c-0.17,0-0.32,0.078-0.423,0.198l-8.739-5.045c0.029-0.068,0.045-0.142,0.045-0.221
	c0-0.285-0.216-0.519-0.493-0.552V23.054c0.156-0.019,0.291-0.099,0.38-0.218l8.733,5.042c-0.039,0.076-0.062,0.16-0.062,0.25
	C48.092,28.436,48.342,28.687,48.65,28.687z M48.153,50.88l-8.732,5.042c-0.089-0.119-0.224-0.199-0.38-0.218V45.556
	c0.277-0.032,0.493-0.266,0.493-0.551c0-0.078-0.017-0.153-0.045-0.22l8.739-5.046c0.103,0.12,0.253,0.198,0.423,0.198
	c0.001,0,0.002,0,0.002,0v10.135c0,0-0.001-0.001-0.002-0.001c-0.308,0-0.558,0.25-0.558,0.559
	C48.092,50.72,48.115,50.805,48.153,50.88z M48.65,61.322c-0.17,0-0.32,0.078-0.423,0.198l-8.739-5.046
	c0.029-0.066,0.045-0.141,0.045-0.22c0-0.078-0.017-0.152-0.045-0.22l8.739-5.046c0.103,0.121,0.253,0.199,0.423,0.199
	c0.196,0,0.367-0.101,0.467-0.252l8.833,5.099c-0.029,0.067-0.045,0.142-0.045,0.22c0,0.079,0.016,0.153,0.045,0.22l-8.833,5.101
	C49.017,61.424,48.846,61.322,48.65,61.322z M58.016,55.922l-8.841-5.104c0.021-0.059,0.035-0.121,0.035-0.188
	c0-0.262-0.181-0.479-0.425-0.54V39.92c0.138-0.035,0.256-0.119,0.333-0.234l8.833,5.1c-0.029,0.066-0.045,0.142-0.045,0.22
	c0,0.285,0.215,0.519,0.492,0.551v10.148C58.24,55.723,58.105,55.803,58.016,55.922z M49.174,27.941l8.841-5.105
	c0.09,0.119,0.225,0.2,0.381,0.218v10.147c-0.277,0.033-0.492,0.267-0.492,0.552c0,0.078,0.016,0.152,0.045,0.22l-8.833,5.1
	c-0.076-0.115-0.194-0.2-0.333-0.233v-10.17c0.244-0.061,0.425-0.279,0.425-0.541C49.209,28.062,49.195,28,49.174,27.941z
	 M58.016,44.671l-8.841-5.105c0.021-0.059,0.035-0.12,0.035-0.187c0-0.065-0.014-0.129-0.035-0.188l8.841-5.105
	c0.102,0.137,0.264,0.226,0.447,0.226c0.182,0,0.344-0.089,0.445-0.226l8.732,5.043c-0.039,0.076-0.061,0.159-0.061,0.25
	c0,0.09,0.021,0.175,0.061,0.249l-8.732,5.043c-0.102-0.137-0.264-0.226-0.445-0.226C58.279,44.445,58.117,44.534,58.016,44.671z
	 M68.137,28.687c0.002,0,0.002,0,0.002,0V38.82c0,0,0,0-0.002,0c-0.17,0-0.32,0.078-0.424,0.198l-8.738-5.045
	c0.029-0.068,0.045-0.142,0.045-0.221c0-0.285-0.215-0.519-0.49-0.552V23.054c0.154-0.019,0.289-0.099,0.379-0.218l8.732,5.042
	c-0.039,0.076-0.061,0.16-0.061,0.25C67.58,28.436,67.83,28.687,68.137,28.687z M67.641,50.88l-8.732,5.042
	c-0.09-0.119-0.225-0.199-0.379-0.218V45.556c0.275-0.032,0.49-0.266,0.49-0.551c0-0.078-0.016-0.153-0.045-0.22l8.738-5.046
	c0.104,0.12,0.254,0.198,0.424,0.198c0.002,0,0.002,0,0.002,0v10.135c0,0,0-0.001-0.002-0.001c-0.307,0-0.557,0.25-0.557,0.559
	C67.58,50.72,67.602,50.805,67.641,50.88z M68.137,61.322c-0.17,0-0.32,0.078-0.424,0.198l-8.738-5.046
	c0.029-0.066,0.045-0.141,0.045-0.22c0-0.078-0.016-0.152-0.045-0.22l8.738-5.046c0.104,0.121,0.254,0.199,0.424,0.199
	c0.197,0,0.367-0.101,0.467-0.252l8.832,5.099c-0.029,0.067-0.045,0.142-0.045,0.22c0,0.079,0.016,0.153,0.045,0.22l-8.832,5.101
	C68.504,61.424,68.334,61.322,68.137,61.322z M77.504,55.922l-8.842-5.104c0.021-0.059,0.033-0.121,0.033-0.188
	c0-0.262-0.18-0.479-0.424-0.54V39.92c0.139-0.035,0.256-0.119,0.332-0.234l8.832,5.1c-0.029,0.066-0.045,0.142-0.045,0.22
	c0,0.285,0.215,0.519,0.492,0.551v10.148C77.727,55.723,77.594,55.803,77.504,55.922z M68.662,27.941l8.842-5.105
	c0.09,0.119,0.223,0.2,0.379,0.218v10.147c-0.277,0.033-0.492,0.267-0.492,0.552c0,0.078,0.016,0.152,0.045,0.22l-8.832,5.1
	c-0.076-0.115-0.193-0.2-0.332-0.233v-10.17c0.244-0.061,0.424-0.279,0.424-0.541C68.695,28.062,68.684,28,68.662,27.941z
	 M77.504,44.671l-8.842-5.105c0.021-0.059,0.033-0.12,0.033-0.187c0-0.065-0.012-0.129-0.033-0.188l8.842-5.105
	c0.102,0.137,0.262,0.226,0.445,0.226s0.344-0.089,0.445-0.226l8.734,5.043c-0.039,0.076-0.063,0.159-0.063,0.25
	c0,0.09,0.023,0.175,0.063,0.249l-8.734,5.043c-0.102-0.137-0.262-0.226-0.445-0.226S77.605,44.534,77.504,44.671z M87.129,50.88
	l-8.734,5.042c-0.088-0.119-0.225-0.199-0.379-0.218V45.556c0.277-0.032,0.492-0.266,0.492-0.551c0-0.078-0.018-0.153-0.045-0.22
	l8.738-5.046c0.102,0.12,0.254,0.198,0.424,0.198h0.002v10.135l-0.002-0.001c-0.309,0-0.559,0.25-0.559,0.559
	C87.066,50.72,87.09,50.805,87.129,50.88z M87.627,38.82h-0.002c-0.17,0-0.322,0.078-0.424,0.198l-8.738-5.045
	c0.027-0.068,0.045-0.142,0.045-0.221c0-0.285-0.215-0.519-0.492-0.552V23.054c0.154-0.019,0.291-0.099,0.379-0.218l8.734,5.042
	c-0.039,0.076-0.063,0.16-0.063,0.25c0,0.309,0.25,0.559,0.559,0.559h0.002V38.82z M87.625,6.184h0.002v10.135l-0.002,0
	c-0.309,0-0.559,0.25-0.559,0.559c0,0.09,0.023,0.174,0.063,0.25l-8.734,5.042c-0.088-0.119-0.225-0.2-0.379-0.219V11.803
	c0.277-0.033,0.492-0.266,0.492-0.552c0-0.078-0.018-0.152-0.045-0.22l8.738-5.045C87.303,6.106,87.455,6.184,87.625,6.184z
	 M68.662,5.439l8.842-5.105c0.102,0.136,0.262,0.225,0.445,0.225s0.344-0.089,0.445-0.225l8.734,5.042
	c-0.039,0.075-0.063,0.159-0.063,0.25c0,0.09,0.023,0.174,0.063,0.25l-8.734,5.042c-0.102-0.136-0.262-0.225-0.445-0.225
	s-0.344,0.089-0.445,0.225l-8.842-5.105c0.021-0.059,0.033-0.121,0.033-0.187C68.695,5.56,68.684,5.498,68.662,5.439z M68.271,6.166
	c0.139-0.034,0.256-0.118,0.332-0.234l8.832,5.099c-0.029,0.068-0.045,0.142-0.045,0.22c0,0.286,0.215,0.519,0.492,0.552V21.95
	c-0.156,0.019-0.289,0.1-0.379,0.219l-8.842-5.105c0.021-0.059,0.033-0.121,0.033-0.187c0-0.262-0.18-0.48-0.424-0.541V6.166z
	 M68.604,17.184l8.832,5.099c-0.029,0.068-0.045,0.142-0.045,0.22c0,0.078,0.016,0.152,0.045,0.22l-8.832,5.1
	c-0.1-0.152-0.27-0.252-0.467-0.252c-0.17,0-0.32,0.078-0.424,0.198l-8.738-5.045c0.029-0.068,0.045-0.142,0.045-0.22
	c0-0.078-0.016-0.152-0.045-0.22l8.738-5.045c0.104,0.12,0.254,0.198,0.424,0.198C68.334,17.435,68.504,17.335,68.604,17.184z
	 M68.137,6.184c0.002,0,0.002,0,0.002,0v10.135c0,0,0,0-0.002,0c-0.307,0-0.557,0.25-0.557,0.559c0,0.09,0.021,0.174,0.061,0.25
	l-8.732,5.042c-0.09-0.119-0.225-0.2-0.379-0.219V11.803c0.275-0.033,0.49-0.266,0.49-0.552c0-0.078-0.016-0.152-0.045-0.22
	l8.738-5.045C67.816,6.106,67.967,6.184,68.137,6.184z M49.174,5.439l8.841-5.105c0.102,0.136,0.264,0.225,0.447,0.225
	c0.182,0,0.344-0.089,0.445-0.225l8.732,5.042c-0.039,0.075-0.061,0.159-0.061,0.25c0,0.09,0.021,0.174,0.061,0.25l-8.732,5.042
	c-0.102-0.136-0.264-0.225-0.445-0.225c-0.184,0-0.346,0.089-0.447,0.225l-8.841-5.105c0.021-0.059,0.035-0.121,0.035-0.187
	C49.209,5.56,49.195,5.498,49.174,5.439z M48.784,6.166c0.138-0.034,0.256-0.118,0.333-0.234l8.833,5.099
	c-0.029,0.068-0.045,0.142-0.045,0.22c0,0.286,0.215,0.519,0.492,0.552V21.95c-0.156,0.019-0.291,0.1-0.381,0.219l-8.841-5.105
	c0.021-0.059,0.035-0.121,0.035-0.187c0-0.262-0.181-0.48-0.425-0.541V6.166z M49.117,17.184l8.833,5.099
	c-0.029,0.068-0.045,0.142-0.045,0.22c0,0.078,0.016,0.152,0.045,0.22l-8.833,5.1c-0.1-0.152-0.271-0.252-0.467-0.252
	c-0.17,0-0.32,0.078-0.423,0.198l-8.739-5.045c0.029-0.068,0.045-0.142,0.045-0.22c0-0.078-0.017-0.152-0.045-0.22l8.739-5.045
	c0.103,0.12,0.253,0.198,0.423,0.198C48.846,17.435,49.017,17.335,49.117,17.184z M48.65,6.184c0.001,0,0.002,0,0.002,0v10.135
	c0,0-0.001,0-0.002,0c-0.308,0-0.558,0.25-0.558,0.559c0,0.09,0.023,0.174,0.062,0.25l-8.733,5.042
	c-0.089-0.119-0.224-0.2-0.38-0.219V11.803c0.277-0.033,0.493-0.266,0.493-0.552c0-0.078-0.017-0.152-0.045-0.22l8.739-5.045
	C48.33,6.106,48.48,6.184,48.65,6.184z M29.687,5.439l8.842-5.105c0.102,0.136,0.263,0.225,0.446,0.225
	c0.183,0,0.343-0.089,0.445-0.225l8.733,5.042c-0.039,0.075-0.062,0.159-0.062,0.25c0,0.09,0.023,0.174,0.062,0.25l-8.733,5.042
	c-0.103-0.136-0.263-0.225-0.446-0.225c-0.183,0-0.344,0.089-0.446,0.225l-8.842-5.105c0.021-0.059,0.035-0.121,0.035-0.187
	C29.722,5.56,29.708,5.498,29.687,5.439z M29.297,6.166c0.138-0.034,0.256-0.118,0.332-0.234l8.832,5.099
	c-0.029,0.068-0.045,0.142-0.045,0.22c0,0.286,0.215,0.519,0.492,0.552V21.95c-0.155,0.019-0.29,0.1-0.379,0.219l-8.842-5.105
	c0.021-0.059,0.035-0.121,0.035-0.187c0-0.262-0.181-0.48-0.424-0.541V6.166z M29.629,17.184l8.832,5.099
	c-0.029,0.068-0.045,0.142-0.045,0.22c0,0.078,0.016,0.152,0.045,0.22l-8.832,5.1c-0.1-0.152-0.271-0.252-0.466-0.252
	c-0.171,0-0.321,0.078-0.424,0.198L20,22.722c0.029-0.068,0.045-0.142,0.045-0.22c0-0.078-0.016-0.152-0.045-0.22l8.739-5.045
	c0.103,0.12,0.253,0.198,0.424,0.198C29.358,17.435,29.53,17.335,29.629,17.184z M29.163,6.184c0,0,0.001,0,0.001,0v10.135
	c0,0-0.001,0-0.001,0c-0.309,0-0.559,0.25-0.559,0.559c0,0.09,0.023,0.174,0.062,0.25l-8.733,5.042
	c-0.089-0.119-0.224-0.2-0.379-0.219V11.803c0.277-0.033,0.493-0.266,0.493-0.552c0-0.078-0.016-0.152-0.045-0.22l8.739-5.045
	C28.842,6.106,28.992,6.184,29.163,6.184z M10.2,5.439l8.842-5.105c0.102,0.136,0.263,0.225,0.445,0.225
	c0.183,0,0.344-0.089,0.446-0.225l8.733,5.042c-0.038,0.075-0.062,0.159-0.062,0.25c0,0.09,0.023,0.174,0.062,0.25l-8.733,5.042
	c-0.102-0.136-0.263-0.225-0.446-0.225c-0.182,0-0.343,0.089-0.445,0.225L10.2,5.813c0.021-0.059,0.034-0.121,0.034-0.187
	C10.234,5.56,10.221,5.498,10.2,5.439z M9.81,6.166c0.138-0.034,0.256-0.118,0.333-0.234l8.832,5.099
	c-0.029,0.068-0.045,0.142-0.045,0.22c0,0.286,0.215,0.519,0.492,0.552V21.95c-0.155,0.019-0.29,0.1-0.379,0.219L10.2,17.064
	c0.021-0.059,0.034-0.121,0.034-0.187c0-0.262-0.181-0.48-0.424-0.541V6.166z M10.142,17.184l8.832,5.099
	c-0.029,0.068-0.045,0.142-0.045,0.22c0,0.078,0.016,0.152,0.045,0.22l-8.832,5.1c-0.1-0.152-0.271-0.252-0.466-0.252
	c-0.17,0-0.321,0.078-0.423,0.198l-8.739-5.045c0.029-0.068,0.045-0.142,0.045-0.22c0-0.078-0.016-0.152-0.045-0.22l8.739-5.045
	c0.102,0.12,0.253,0.198,0.424,0.198C9.871,17.435,10.042,17.335,10.142,17.184z M0.066,11.803c0.277-0.033,0.492-0.266,0.492-0.552
	c0-0.078-0.016-0.152-0.045-0.22l8.739-5.045c0.103,0.12,0.253,0.198,0.424,0.198c0,0,0.001,0,0.001,0v10.135c0,0-0.001,0-0.001,0
	c-0.309,0-0.559,0.25-0.559,0.559c0,0.09,0.024,0.174,0.062,0.25l-8.733,5.042c-0.089-0.119-0.225-0.2-0.38-0.219V11.803z
	 M0.513,33.974c0.029-0.068,0.045-0.142,0.045-0.221c0-0.285-0.215-0.519-0.492-0.552V23.054c0.155-0.019,0.291-0.099,0.38-0.218
	l8.733,5.042c-0.038,0.076-0.062,0.16-0.062,0.25c0,0.309,0.25,0.559,0.559,0.559c0,0,0.001,0,0.001,0V38.82c0,0-0.001,0-0.001,0
	c-0.17,0-0.321,0.078-0.423,0.198L0.513,33.974z M0.558,45.005c0-0.078-0.016-0.153-0.045-0.22l8.739-5.046
	c0.102,0.12,0.253,0.198,0.424,0.198c0,0,0.001,0,0.001,0v10.135c0,0-0.001-0.001-0.001-0.001c-0.309,0-0.559,0.25-0.559,0.559
	c0,0.09,0.024,0.175,0.062,0.25l-8.733,5.042c-0.089-0.119-0.225-0.199-0.38-0.218V45.556C0.343,45.523,0.558,45.29,0.558,45.005z
	 M0.513,67.727c0.029-0.068,0.045-0.142,0.045-0.22c0-0.286-0.215-0.519-0.492-0.553V56.808c0.155-0.019,0.291-0.1,0.38-0.219
	l8.733,5.042c-0.038,0.076-0.062,0.16-0.062,0.251c0,0.308,0.25,0.558,0.559,0.558c0,0,0.001,0,0.001,0v10.134c0,0-0.001,0-0.001,0
	c-0.17,0-0.321,0.078-0.423,0.198L0.513,67.727z M0.446,89.675c-0.089-0.119-0.225-0.199-0.38-0.218V79.31
	c0.277-0.033,0.492-0.267,0.492-0.552c0-0.078-0.016-0.153-0.045-0.221l8.739-5.045c0.102,0.121,0.253,0.199,0.424,0.199
	c0,0,0.001-0.002,0.001-0.002v10.136c0,0-0.001,0-0.001,0c-0.309,0-0.559,0.25-0.559,0.558c0,0.091,0.024,0.174,0.062,0.25
	L0.446,89.675z M18.974,90.229l-8.832,5.1c-0.1-0.151-0.271-0.253-0.466-0.253c-0.17,0-0.321,0.078-0.424,0.198l-8.739-5.045
	c0.029-0.067,0.045-0.142,0.045-0.221c0-0.078-0.016-0.151-0.045-0.22l8.739-5.045c0.102,0.12,0.253,0.198,0.424,0.198
	c0.195,0,0.367-0.101,0.466-0.252l8.832,5.099c-0.029,0.068-0.045,0.142-0.045,0.22C18.929,90.087,18.945,90.161,18.974,90.229z
	 M19.042,89.675L10.2,84.57c0.021-0.059,0.034-0.121,0.034-0.188c0-0.262-0.181-0.479-0.424-0.541V73.673
	c0.139-0.035,0.257-0.119,0.333-0.234l8.832,5.099c-0.029,0.067-0.045,0.143-0.045,0.221c0,0.285,0.215,0.519,0.492,0.552v10.147
	C19.266,89.476,19.131,89.556,19.042,89.675z M19.487,78.198c-0.182,0-0.343,0.09-0.445,0.226L10.2,73.318
	c0.021-0.059,0.034-0.12,0.034-0.187c0-0.065-0.013-0.129-0.034-0.188l8.841-5.104c0.102,0.136,0.263,0.225,0.445,0.225
	c0.183,0,0.344-0.089,0.446-0.224l8.733,5.041c-0.038,0.076-0.062,0.159-0.062,0.25c0,0.09,0.023,0.175,0.062,0.249l-8.733,5.043
	C19.831,78.288,19.67,78.198,19.487,78.198z M19.933,89.675c-0.089-0.119-0.224-0.199-0.379-0.218l0-10.147
	c0.277-0.033,0.493-0.267,0.493-0.552c0-0.078-0.016-0.153-0.045-0.221l8.739-5.045c0.103,0.121,0.253,0.199,0.424,0.199
	c0,0,0.001-0.002,0.002-0.002l0,10.136c0,0-0.001,0-0.001,0c-0.309,0-0.559,0.25-0.559,0.558c0,0.091,0.023,0.174,0.062,0.25
	L19.933,89.675z M38.461,90.229l-8.832,5.1c-0.1-0.151-0.271-0.253-0.466-0.253c-0.171,0-0.321,0.078-0.424,0.198L20,90.229
	c0.029-0.067,0.045-0.142,0.045-0.221c0-0.078-0.016-0.151-0.045-0.22l8.738-5.045c0.103,0.12,0.253,0.198,0.424,0.198
	c0.195,0,0.367-0.101,0.467-0.252l8.832,5.099c-0.029,0.068-0.045,0.142-0.045,0.22C38.416,90.087,38.432,90.161,38.461,90.229z
	 M38.529,89.675l-8.842-5.104c0.021-0.059,0.035-0.121,0.035-0.188c0-0.262-0.181-0.479-0.424-0.541V73.673
	c0.138-0.035,0.256-0.119,0.333-0.234l8.832,5.099c-0.029,0.067-0.045,0.143-0.045,0.221c0,0.285,0.215,0.519,0.492,0.552l0,10.147
	C38.753,89.476,38.619,89.556,38.529,89.675z M38.975,78.198c-0.183,0-0.344,0.09-0.446,0.226l-8.842-5.105
	c0.021-0.059,0.035-0.12,0.035-0.187c0-0.065-0.013-0.129-0.035-0.188l8.842-5.104c0.102,0.136,0.263,0.225,0.446,0.225
	c0.183,0,0.343-0.089,0.446-0.224l8.733,5.041c-0.039,0.076-0.062,0.159-0.062,0.25c0,0.09,0.023,0.175,0.062,0.249l-8.733,5.043
	C39.318,78.288,39.157,78.198,38.975,78.198z M39.42,89.675c-0.089-0.119-0.224-0.199-0.38-0.218V79.31
	c0.277-0.033,0.493-0.267,0.493-0.552c0-0.078-0.017-0.153-0.045-0.221l8.739-5.045c0.103,0.121,0.253,0.199,0.423,0.199
	c0.001,0,0.002-0.002,0.002-0.002v10.136c0,0-0.001,0-0.002,0c-0.308,0-0.558,0.25-0.558,0.558c0,0.091,0.023,0.174,0.061,0.25
	L39.42,89.675z M57.949,90.229l-8.833,5.1c-0.1-0.151-0.271-0.253-0.467-0.253c-0.17,0-0.32,0.078-0.423,0.198l-8.739-5.045
	c0.029-0.067,0.045-0.142,0.045-0.221c0-0.078-0.017-0.151-0.045-0.22l8.739-5.045c0.103,0.12,0.253,0.198,0.423,0.198
	c0.196,0,0.367-0.101,0.467-0.252l8.833,5.099c-0.029,0.068-0.045,0.142-0.045,0.22C57.904,90.087,57.92,90.161,57.949,90.229z
	 M58.016,89.675l-8.841-5.104c0.021-0.059,0.035-0.121,0.035-0.188c0-0.262-0.181-0.479-0.425-0.541V73.673
	c0.139-0.035,0.257-0.119,0.333-0.234l8.833,5.099c-0.029,0.067-0.045,0.143-0.045,0.221c0,0.285,0.215,0.519,0.492,0.552v10.147
	C58.24,89.476,58.105,89.556,58.016,89.675z M58.463,78.198c-0.184,0-0.346,0.09-0.447,0.226l-8.841-5.105
	c0.021-0.059,0.035-0.12,0.035-0.187c0-0.065-0.014-0.129-0.035-0.188l8.841-5.104c0.102,0.136,0.264,0.225,0.447,0.225
	c0.182,0,0.344-0.089,0.445-0.224l8.732,5.041c-0.039,0.076-0.061,0.159-0.061,0.25c0,0.09,0.021,0.175,0.061,0.249l-8.732,5.043
	C58.807,78.288,58.645,78.198,58.463,78.198z M58.908,89.675c-0.09-0.118-0.225-0.199-0.379-0.218V79.31
	c0.275-0.033,0.49-0.267,0.49-0.552c0-0.078-0.016-0.153-0.045-0.221l8.738-5.045c0.104,0.121,0.254,0.199,0.424,0.199
	c0.002,0,0.002-0.002,0.002-0.002v10.136c0,0,0,0-0.002,0c-0.307,0-0.557,0.25-0.557,0.558c0,0.091,0.021,0.174,0.061,0.25
	L58.908,89.675z M77.436,90.229l-8.832,5.1c-0.1-0.151-0.27-0.253-0.467-0.253c-0.17,0-0.32,0.078-0.424,0.198l-8.738-5.045
	c0.029-0.067,0.045-0.142,0.045-0.221c0-0.078-0.016-0.151-0.045-0.22l8.738-5.045c0.104,0.12,0.254,0.198,0.424,0.198
	c0.197,0,0.367-0.101,0.467-0.252l8.832,5.099c-0.029,0.068-0.045,0.142-0.045,0.22C77.391,90.087,77.406,90.161,77.436,90.229z
	 M77.504,89.675l-8.842-5.104c0.021-0.059,0.033-0.121,0.033-0.188c0-0.262-0.18-0.479-0.424-0.541V73.673
	c0.139-0.035,0.256-0.119,0.332-0.234l8.832,5.099c-0.029,0.067-0.045,0.143-0.045,0.221c0,0.285,0.215,0.519,0.492,0.552v10.147
	C77.727,89.476,77.594,89.556,77.504,89.675z M77.949,78.198c-0.184,0-0.344,0.09-0.445,0.226l-8.842-5.105
	c0.021-0.059,0.033-0.12,0.033-0.187c0-0.065-0.012-0.129-0.033-0.188l8.842-5.104c0.102,0.136,0.262,0.225,0.445,0.225
	s0.344-0.089,0.445-0.224l8.734,5.041c-0.039,0.076-0.063,0.159-0.063,0.25c0,0.09,0.023,0.175,0.063,0.249l-8.734,5.043
	C78.293,78.288,78.133,78.198,77.949,78.198z M78.395,89.675c-0.088-0.118-0.225-0.199-0.379-0.218V79.31
	c0.277-0.033,0.492-0.267,0.492-0.552c0-0.078-0.018-0.153-0.045-0.221l8.738-5.045c0.102,0.121,0.254,0.199,0.424,0.199
	l0.002-0.002v10.136h-0.002c-0.309,0-0.559,0.25-0.559,0.558c0,0.091,0.023,0.174,0.063,0.25L78.395,89.675z M96.924,90.229
	l-8.832,5.1c-0.1-0.151-0.271-0.253-0.467-0.253c-0.17,0-0.322,0.078-0.424,0.198l-8.738-5.045c0.027-0.067,0.045-0.142,0.045-0.221
	c0-0.078-0.018-0.151-0.045-0.22l8.738-5.045c0.102,0.12,0.254,0.198,0.424,0.198c0.195,0,0.367-0.101,0.467-0.252l8.832,5.099
	c-0.029,0.068-0.047,0.142-0.047,0.22C96.877,90.087,96.895,90.161,96.924,90.229z M96.924,78.537
	c-0.029,0.067-0.047,0.143-0.047,0.221c0,0.285,0.217,0.519,0.494,0.552v10.147c-0.156,0.019-0.291,0.099-0.379,0.218L88.15,84.57
	c0.02-0.059,0.033-0.121,0.033-0.188c0-0.262-0.182-0.479-0.426-0.541l0.002-10.169c0.137-0.035,0.256-0.119,0.332-0.234
	L96.924,78.537z M97.371,66.954c-0.277,0.033-0.494,0.267-0.494,0.553c0,0.078,0.018,0.151,0.047,0.219l-8.832,5.1
	c-0.076-0.115-0.195-0.2-0.332-0.233l-0.002-10.17c0.244-0.061,0.426-0.279,0.426-0.54c0-0.066-0.014-0.129-0.033-0.188l8.842-5.105
	c0.088,0.119,0.223,0.2,0.379,0.219V66.954z M96.924,44.785c-0.029,0.066-0.047,0.142-0.047,0.22c0,0.285,0.217,0.519,0.494,0.551
	v10.148c-0.156,0.019-0.291,0.099-0.379,0.218l-8.842-5.104c0.02-0.059,0.033-0.121,0.033-0.188c0-0.262-0.182-0.479-0.426-0.54
	V39.92c0.139-0.035,0.258-0.119,0.334-0.234L96.924,44.785z M97.371,33.201c-0.277,0.033-0.494,0.267-0.494,0.552
	c0,0.078,0.018,0.152,0.047,0.22l-8.832,5.1c-0.076-0.115-0.195-0.2-0.334-0.233v-10.17c0.244-0.061,0.426-0.279,0.426-0.541
	c0-0.065-0.014-0.127-0.033-0.187l8.842-5.105c0.088,0.119,0.223,0.2,0.379,0.218V33.201z M96.924,11.031
	c-0.029,0.068-0.047,0.142-0.047,0.22c0,0.286,0.217,0.519,0.494,0.552V21.95c-0.156,0.019-0.291,0.1-0.379,0.219l-8.842-5.105
	c0.02-0.059,0.033-0.121,0.033-0.187c0-0.262-0.182-0.48-0.426-0.541V6.166c0.139-0.034,0.258-0.118,0.334-0.234L96.924,11.031z"/>
</svg>
